<svg xmlns="http://www.w3.org/2000/svg" viewBox="0 0 509.33 511.74"><defs><style>.cls-1{fill:#fff;}.cls-2{fill:#302b2b;}</style></defs><title>Ativo 1</title><g id="Camada_2" data-name="Camada 2"><g id="Camada_1-2" data-name="Camada 1"><path class="cls-1" d="M139.84,396.3a116.21,116.21,0,0,1-25.06,2.76,114.8,114.8,0,0,1-46-220A114.8,114.8,0,0,1,254.1,43.87,114.78,114.78,0,0,1,439.94,178.34l-.25.38c.19.07.37.15.54.23A114.81,114.81,0,0,1,369.6,396.33a.65.65,0,0,1-.21-.05c0,.23,0,.45,0,.68A114.78,114.78,0,0,1,254.61,511.74c-63.39,0-114.77-52-114.77-115.44"/><path class="cls-2" d="M152.52,309.41V158.61a30.74,30.74,0,0,1,30.75-30.75H326.06a30.74,30.74,0,0,1,30.75,30.75v150.8a54.91,54.91,0,0,1-16.08,38.83h0a121.72,121.72,0,0,1-172.13,0h0A54.91,54.91,0,0,1,152.52,309.41Z"/><path class="cls-2" d="M152.52,193.46l-111.6,47.1a7.12,7.12,0,0,0-3,10.67l13.59,19.16a20.38,20.38,0,0,0,29.3,4.18l71.75-56.94Z"/><path class="cls-2" d="M356.81,193.46l111.6,47.1a7.12,7.12,0,0,1,3,10.67l-13.59,19.16a20.38,20.38,0,0,1-29.3,4.18l-71.75-56.94Z"/><circle class="cls-1" cx="214.23" cy="226.86" r="19.94"/><circle class="cls-1" cx="295.1" cy="226.86" r="19.94"/></g></g></svg>